<?xml version="1.0" standalone="no"?>
<!DOCTYPE svg PUBLIC "-//W3C//DTD SVG 1.1//EN" "http://www.w3.org/Graphics/SVG/1.1/DTD/svg11.dtd" >
<!--
2013-9-30: Created.
-->
<svg>
<metadata>
Created by iconfont
</metadata>
<defs>

<font id="iconfont" horiz-adv-x="1024" >
  <font-face
    font-family="iconfont"
    font-weight="500"
    font-stretch="normal"
    units-per-em="1024"
    ascent="896"
    descent="-128"
  />
    <missing-glyph />
    
    <glyph glyph-name="x" unicode="x" horiz-adv-x="1001"
d="M281 543q-27 -1 -53 -1h-83q-18 0 -36.5 -6t-32.5 -18.5t-23 -32t-9 -45.5v-76h912v41q0 16 -0.5 30t-0.5 18q0 13 -5 29t-17 29.5t-31.5 22.5t-49.5 9h-133v-97h-438v97zM955 310v-52q0 -23 0.5 -52t0.5 -58t-10.5 -47.5t-26 -30t-33 -16t-31.5 -4.5q-14 -1 -29.5 -0.5
t-29.5 0.5h-32l-45 128h-439l-44 -128h-29h-34q-20 0 -45 1q-25 0 -41 9.5t-25.5 23t-13.5 29.5t-4 30v167h911zM163 247q-12 0 -21 -8.5t-9 -21.5t9 -21.5t21 -8.5q13 0 22 8.5t9 21.5t-9 21.5t-22 8.5zM316 123q-8 -26 -14 -48q-5 -19 -10.5 -37t-7.5 -25t-3 -15t1 -14.5
t9.5 -10.5t21.5 -4h37h67h81h80h64h36q23 0 34 12t2 38q-5 13 -9.5 30.5t-9.5 34.5q-5 19 -11 39h-368zM336 498v228q0 11 2.5 23t10 21.5t20.5 15.5t34 6h188q31 0 51.5 -14.5t20.5 -52.5v-227h-327z" />
    

    
    <glyph glyph-name="ok2" unicode="&#59552;" d="M521.6 827.9013333333332c-238.752 0-432.984-194.256-432.984-433.008S282.82399999999996-38.11466666666672 521.6-38.11466666666672s433.008 194.256 433.008 433.008S760.3520000000002 827.9013333333332 521.6 827.9013333333332zM774.3199999999999 528.8853333333333L480.89599999999996 235.48533333333341c-3.5040000000000004-3.5040000000000004-8.111999999999998-5.279999999999999-12.719999999999999-5.279999999999999s-9.216 1.7520000000000002-12.719999999999999 5.279999999999999l-186.576 186.576c-7.032 7.032-7.032 18.432 0 25.464s18.432 7.032 25.464 0l173.856-173.856 280.68 280.68c7.032 7.032 18.432 7.032 25.464 0S781.3520000000001 535.9173333333333 774.3199999999999 528.8853333333333z"  horiz-adv-x="1024" />

    
    <glyph glyph-name="ok1" unicode="&#59556;" d="M525.44 834.7392c-254.6688 0-461.8496-207.2064-461.8496-461.8752s207.1808-461.8752 461.8496-461.8752 461.8752 207.2064 461.8752 461.8752S780.1088 834.7392 525.44 834.7392zM525.44-50.61120000000005c-233.4976 0-423.4496 189.9776-423.4496 423.4752s189.952 423.4752 423.4496 423.4752 423.4752-189.9776 423.4752-423.4752S758.9376-50.61120000000005 525.44-50.61120000000005zM767.8464 542.9504L468.4544 243.5584l-185.4464 185.4464c-7.5008 7.5008-19.6608 7.5008-27.1616 0s-7.5008-19.6608 0-27.1616l199.0144-199.0144c3.7376-3.7376 8.6528-5.632 13.568-5.632s9.8304 1.8688 13.568 5.632l312.9856 312.9856c7.5008 7.5008 7.5008 19.6608 0 27.1616S775.3472 550.4512 767.8464 542.9504z"  horiz-adv-x="1024" />

    
    <glyph glyph-name="password" unicode="&#58900;" d="M787.3968355555555 425.50613333333337L787.3968355555555 529.6355555555556c0 160.92728888888888-119.05706666666667 291.2711111111111-275.3968355555555 291.2711111111111C355.8058666666667 820.9066666666668 238.20515555555556 689.3249422222223 238.20515555555556 528.3976533333333L238.20515555555556 425.50613333333337 166.1155555555556 425.50613333333337l0-413.6049777777778c0-35.82634666666666 28.253297777777778-64.80782222222223 62.768924444444444-64.80782222222223l566.1582222222222 0c34.58844444444444 0 62.768924444444444 28.98147555555556 62.768924444444444 64.80782222222223L857.8116266666666 425.50613333333337 787.3968355555555 425.50613333333337zM512 87.99573333333342c-53.52106666666667 0-96.84764444444446 44.27320888888889-96.84764444444446 98.66808888888889S458.4789333333333 285.331911111111 512 285.331911111111s96.84764444444446-44.20039111111111 96.84764444444446-98.66808888888889S565.5210666666666 87.99573333333342 512 87.99573333333342zM679.2624355555556 425.50613333333337l-336.41813333333334 0 3.640888888888889 101.94488888888888C346.48519111111113 616.8712533333334 412.2396444444445 705.3448533333333 512 705.3448533333333c107.55185777777778 0 167.26243555555556-86.28906666666667 167.26243555555556-175.70929777777778L679.2624355555556 425.50613333333337z"  horiz-adv-x="1024" />

    
    <glyph glyph-name="user" unicode="&#59028;" d="M512.001159 752.478098c-254.650839 0-461.098236-206.435803-461.098236-461.099395 0-254.650839 206.447396-461.095917 461.098236-461.095917 254.64968 0 461.095917 206.443918 461.095917 461.095917C973.098236 546.042295 766.650839 752.478098 512.001159 752.478098zM769.311483-17.340588c-28.105439 13.960554-121.61518 32.474923-144.099068 46.629084-25.736945 16.210797-17.464024 104.835156-17.464024 104.835156l17.464024 15.294933c0 0 4.430928 40.05457 12.016371 54.605218 16.991021 32.586218 34.955872 87.35606 34.955872 87.35606s17.464024 12.715442 17.464024 34.945438c0 22.231156-17.464024 34.946598-17.464024 34.946598s6.542053 61.855617 6.542053 104.845589c0 90.294941-56.666492 139.779434-158.527987 139.779434-101.859176 0-176.180981-42.0544-176.180981-139.779434 0-42.989973 13.651015-104.845589 13.651015-104.845589s-17.489529-12.714283-17.489529-34.946598c0-22.229996 17.489529-34.945438 17.489529-34.945438s20.382037-63.383603 34.933845-87.35606c8.508263-14.01852 12.016371-54.605218 12.016371-54.605218l17.464024-15.294933c0 0 8.270602-88.623199-17.464024-104.835156-23.2502-14.649191-122.598285-33.963493-146.79681-48.086351 1.214969-1.197579 69.654375-60.241841 173.727856-83.661301-183.395441 37.269879-321.421981 199.445092-321.421981 393.83786 0 221.959123 179.925591 401.884713 401.87312 401.884713 221.945211 0 401.895147-179.92675 401.895147-401.884713C913.896306 167.319673 857.666878 56.385325 769.311483-17.340588z"  horiz-adv-x="1024" />

    
    <glyph glyph-name="search" unicode="&#58888;" d="M936.1943008395062-4.844775769547368l-203.25976915226335 207.67845978600823c123.72333774485595 150.2354815473251 114.88595647736626 371.1700132345679-22.09345316872428 508.14942288065845C644.5607190123455 786.1008476707818 547.3495250699589 825.8690633744854 450.13833112757203 825.8690633744854c-101.62988457613167 0-194.42238788477366-39.76821570370371-265.1214380246914-110.46726584362138-145.81679091358023-145.81679091358023-145.81679091358023-388.8447757695473 0-534.6615666831275 70.6990501399177-70.6990501399177 163.49155344855967-110.46726584362138 265.1214380246914-110.46726584362138 88.37381267489712 0 172.32893471604936 30.93083443621399 243.02798485596705 92.79250330864197l203.25976915226335-207.67845978600823c4.418690633744856-4.418690633744856 13.256071901234565-8.837381267489713 22.09345316872428-8.837381267489713 8.837381267489713 0 17.674762534979426 4.418690633744856 22.09345316872428 8.837381267489713C949.4503727407407-35.77561020576127 949.4503727407407-13.682157037037086 936.1943008395062-4.844775769547368zM229.20379944032913 224.92713718518507c-119.30464711111112 123.72333774485595-119.30464711111112 322.5644162633745 0 446.2877540082304 57.44297823868313 57.44297823868313 136.97940964609052 92.79250330864197 220.93453168724275 92.79250330864197 83.95512204115224 0 159.07286281481484-30.93083443621399 220.93453168724275-92.79250330864197 119.30464711111112-123.72333774485595 119.30464711111112-322.5644162633745 0-446.2877540082304-57.44297823868313-57.44297823868313-136.97940964609052-92.79250330864197-220.93453168724275-92.79250330864197C366.18320908641965 132.13463387654338 286.6467776790123 163.06546831275728 229.20379944032913 224.92713718518507z"  horiz-adv-x="1024" />

    
    <glyph glyph-name="password1" unicode="&#59298;" d="M522.2476196393213 318.0770138820062l-20.474137085072677 0c-16.975870020615023 0-30.718743177381743-13.76096033042752-30.74135067156087-30.718743177381743l0-143.34307975478146c0-16.957782846954228 13.744379930272833-30.718743177381743 30.720249950887847-30.718743177381743l20.480167124890862 0c16.97436177421204 0 30.733815331133453 13.76096033042752 30.733815331133453 30.718743177381743l0 143.34307975478146C552.966361343806 304.31756179798197 539.2069092597816 318.0770138820062 522.2476196393213 318.0770138820062zM901.0764403549899 394.9032620097626c-0.17333050459303156 55.5050495210916-45.1247940450172 100.49871597575867-100.88154985936946 101.29754454328959l0 39.73948095851245c0 162.48482990540165-133.0321564805443 288.1963972691268-288.1948904956207 288.1963972691268-157.14624152655503 0-288.1963972691268-131.054677535987-288.1963972691268-288.1963972691268l0-39.73948095851245c-55.75524904084614-0.7988285675309298-100.70671258127031-45.79098824869188-100.88154985936946-101.29754454328959l-0.0075368133242908085 0 0-349.3836841041358c0-56.15466332461159 45.8316829165318-101.65626415921513 102.39028231832405-101.65626415921513l573.3873896999808 0c56.56010617529836 0 102.39178909183016 45.50310760810964 102.39178909183016 101.65626415921513l0 28.28005308764918L901.0839771683143 394.5822235146648l0 0.32103849509785454L901.0764403549899 394.9032620097626zM512 752.9565010924277c107.95344770283701 0 203.46927989576548-89.0860113396566 203.46927989576548-203.4738002162838l0-53.24421320226415L308.5261997837162 496.23848767387983l0 53.24421320226415C308.5261997837162 660.1220216956622 401.37424308783056 752.9565010924277 512 752.9565010924277zM815.2264408990908 58.52541935627244c0-20.522368566236885-16.981898587536328-37.22090977950305-37.90518968394166-37.22090977950305L246.67724201134456 21.304509576769078c-20.902188902835448 0-37.90368143753867 16.69853974036929-37.90368143753867 37.22090977950305l0 26.17747511966305 0 0L208.77355910090898 381.57638353691596c0 20.522368566236885 17.00149253470323 37.22090977950305 37.90368143753867 37.22090977950305l530.6440092038047 0c20.92329109640533 0 37.90368143753867-16.69552619335708 37.90518968394166-37.21638798608786L815.2264408990908 58.52541935627244z"  horiz-adv-x="1024" />

    
    <glyph glyph-name="user1" unicode="&#58925;" d="M891.5577681640625-65.46433300781257c0 161.80700185546877-100.72319501953125 299.71378564453124-242.58643330078127 355.01356669921876 90.14770283203126 49.0214443359375 151.367396484375 144.73260351562502 151.367396484375 254.79256025390623C800.3407000976563 704.3153173828125 671.0124728515625 834 511.48205703124995 834 351.94770283203127 834 222.6214443359375 704.3153173828125 222.6214443359375 544.3417939453125c0-110.059955859375 61.21969365234376-205.77111591796876 151.367396484375-254.79256025390623C232.12363203124994 234.25142226562502 131.40240664062503 96.34463935546864 131.40240664062503-65.46433300781257l57.0210064453125 0c-0.20284453125 4.69496689453125-0.7129098632812501 9.31116005859375-0.7129098632812501 14.055360644531252 0 178.52297607421875 144.957111328125 323.245733203125 323.77155380859375 323.245733203125 178.81050322265625 0 323.76958417968746-144.7207875 323.76958417968746-323.245733203125 0-4.74420146484375-0.50809658203125-9.36039375-0.71094111328125-14.055360644531252L891.5577681640625-65.46433300781257zM283.433479296875 544.3417939453125c0 126.29540478515624 102.10175068359376 228.678774609375 228.04857773437502 228.678774609375 125.94682705078125 0 228.04463935546875-102.38336982421876 228.04463935546875-228.678774609375s-102.0997810546875-228.67483623046874-228.04463935546875-228.67483623046874C385.5352299804687 315.6669585937501 283.433479296875 418.0463891601563 283.433479296875 544.3417939453125z"  horiz-adv-x="1024" />

    
    <glyph glyph-name="delete1" unicode="&#58999;" d="M920.771 624.7049999999999c0-10.452-8.129-18.58-18.58-18.58l-55.742 0 0-550.448c0-63.871-41.807-118.45-92.902-118.45L270.454-62.773000000000025c-51.097 0-92.903 52.258-92.903 116.128L177.551 606.125 121.81 606.125c-10.452 0-18.581 8.128-18.581 18.58l0 37.161c0 10.452 8.128 18.581 18.581 18.581l179.418 0 40.645 96.967c11.612 28.451 46.451 51.677 77.225 51.677l185.805 0c30.773 0 65.613-23.226 77.225-51.677l40.646-96.967 179.418 0c10.451 0 18.58-8.129 18.58-18.581L920.772 624.7049999999999zM772.127 606.125L251.873 606.125l0-550.448c0-27.87 15.678-44.128 18.581-44.128l483.093 0c2.902 0 18.58 16.258 18.58 44.128L772.127 606.125zM400.517 141.61199999999997c0-10.452-8.129-18.58-18.581-18.58l-37.161 0c-10.452 0-18.58 8.128-18.58 18.58L326.195 476.062c0 10.452 8.128 18.58 18.58 18.58l37.161 0c10.452 0 18.581-8.128 18.581-18.58L400.517 141.61199999999997zM642.063 680.447l-27.869 67.935c-1.742 2.323-6.969 5.807-9.869 6.387L420.259 754.769c-3.484-0.581-8.128-4.064-9.871-6.387l-28.451-67.935L642.063 680.447zM549.161 141.61199999999997c0-10.452-8.128-18.58-18.58-18.58l-37.162 0c-10.452 0-18.58 8.128-18.58 18.58L474.839 476.062c0 10.452 8.128 18.58 18.58 18.58l37.162 0c10.452 0 18.58-8.128 18.58-18.58L549.161 141.61199999999997zM697.805 141.61199999999997c0-10.452-8.129-18.58-18.58-18.58l-37.162 0c-10.449 0-18.578 8.128-18.578 18.58L623.485 476.062c0 10.452 8.129 18.58 18.578 18.58l37.162 0c10.451 0 18.58-8.128 18.58-18.58L697.805 141.61199999999997z"  horiz-adv-x="1024" />

    
    <glyph glyph-name="password2" unicode="&#58880;" d="M656.853125 546.6075v92.37281250000001c0 45.538125-36.066562499999996 82.38375-80.698125 82.38375h-115.5965625c-44.5003125 0-80.698125-36.845625-80.698125-82.38375v-92.37281250000001h-105.995625v92.37281250000001c0.1303125 105.34687500000001 83.68125 190.845 186.6928125 190.845h115.72687499999999c103.01156250000001 0 186.5634375-85.49812499999999 186.5634375-190.845v-92.37281250000001h-105.995625zM555.786875-77.56500000000005h-87.18374999999999c-156.3346875 0-283.089375 103.66125-283.089375 263.36906250000004v302.9390625h653.3615625v-302.9390625c0-159.7078125-126.75375000000001-263.36906250000004-283.089375-263.36906250000004v0 0zM525.5571875 364.06499999999994c-40.738125000000004 0-73.6921875-33.7321875-73.6921875-75.2484375 0-31.2665625 18.6834375-58.253437500000004 45.279375-69.4096875v-132.5915625c0-15.9571875 12.715312500000001-28.801875000000003 28.2834375-28.801875000000003s28.2834375 12.84375 28.2834375 28.801875000000003v132.46312500000002c26.595937499999998 11.416875000000001 45.407812500000006 38.2734375 45.407812500000006 69.5390625 0 41.645624999999995-32.954062500000006 75.2484375-73.561875 75.2484375v0 0zM525.5571875 364.06499999999994z"  horiz-adv-x="1024" />

    
    <glyph glyph-name="key" unicode="&#59005;" d="M680.8625 834c-155.334375 0-281.25-125.94375000000001-281.25-281.25 0-36.140625 7.565625000000001-70.340625 20.053125-102.06562500000001l-341.69062499999995-341.6625c-9.871875-9.899999999999999-15.975-19.293750000000003-15.975-34.396875l0-84.375c0-30.09375 26.128125-56.25 56.25-56.25l84.375 0c15.075000000000001 0 24.609375 6.046875 34.48125 15.862499999999999l40.35937500000001 40.387499999999996 65.896875 0c31.050000000000004 0 56.25 25.2 56.25 56.25l0 56.25 56.25 0c31.050000000000004 0 56.25 25.2 56.25 56.25l0 65.925 66.62812500000001 66.68437499999999c31.753124999999997-12.515625 65.925-20.109375 102.12187499999999-20.109375 155.278125 0 281.25 125.94375000000001 281.25 281.25s-125.97187500000001 281.25-281.25 281.25zM680.8625 327.75c-41.625 0-80.2125 12.09375-113.65312500000002 31.837499999999995l-9.674999999999999-9.646875000000001-85.21874999999999-85.246875c-10.546875-10.546875-16.48125-24.834375-16.48125-39.76875l0-65.925-56.25 0c-31.050000000000004 0-56.25-25.171875-56.25-56.25l0-56.25-65.86875 0c-14.90625 0-29.221874999999997-5.934375-39.76875-16.48125l-39.88125-39.88125-79.48125 0.11249999999999999-0.08437499999999999 80.15625 328.078125 327.4875c0 0 0-0.028124999999999997 0.028124999999999997-0.056249999999999994l41.315625 41.315625c-19.74375 33.440625000000004-31.837499999999995 72-31.837499999999995 113.625 0 124.25625 100.77187500000001 225 225 225s225-100.74374999999999 225-225-100.71562499999999-225.028125-224.971875-225.028125zM844.4375 602.278125c-31.528125000000003 43.93125-69.91875000000002 82.265625-114.04687499999999 114.01875000000001-7.171875 5.203125-16.453124999999996 6.496875-24.806250000000002 3.571875-39.065625000000004-13.753125-65.81249999999999-40.471875000000004-79.48125-79.5375-1.040625-2.925-1.546875-5.9624999999999995-1.546875-8.971875 0-5.596875000000001 1.74375-11.137500000000001 5.11875-15.834374999999998 31.640625-43.987500000000004 69.975-82.35000000000001 113.99062500000001-113.99062500000001 7.199999999999999-5.175 16.425-6.496875 24.778125-3.5999999999999996 39.121875 13.66875 65.86875 40.44375 79.59375 79.5375 1.040625 2.925 1.546875 5.9624999999999995 1.546875 8.971875-0.028124999999999997 5.596875000000001-1.7999999999999998 11.137500000000001-5.1468750000000005 15.834374999999998zM760.0625 524.34375c-41.568749999999994 29.896874999999998-77.765625 66.09375-107.4375 106.67812500000001 10.884374999999999 31.021874999999998 31.246875 51.384375000000006 61.36874999999999 62.465624999999996 41.596875000000004-29.953125 77.73749999999998-66.065625 107.32499999999999-107.184375-10.996875000000001-30.796875-31.303125-51.04687499999999-61.25625-61.95937499999999z"  horiz-adv-x="1025" />

    
    <glyph glyph-name="system" unicode="&#58911;" d="M511.2914564841876 162.69807533068638c-126.75065778125433 0-253.50131556250867 0-380.2519733437629-0.15745468997530865-17.319965410291356 0-32.75048101357037 3.7789022031012345-45.18936527454814 16.37523985951605-10.234525074014813 10.391979763990124-15.587968998716047 22.830864024967905-16.0603317741037 37.47410747290864-0.3149080854123457 11.336705314765432-0.15745468997530865 22.515955939555553-0.15745468997530865 33.852659959782706 0 171.62511367585188 0 343.250228646242 0 514.8753423220937 0 38.1039249382716 22.515955939555553 60.93478766870123 60.46242618785185 60.93478766870123 254.60349580325922 0 509.0495356220049 0 763.6530314252641 0 37.63156216288395 0 60.46242618785185-22.67340933499259 60.46242618785185-60.147516807901226 0-181.07236788906667 0-362.14473707267166 0-543.2171049617383 0-37.159199387496294-22.515955939555553-59.9900634124642-59.67515403251358-59.9900634124642C766.8396765436839 162.69807533068638 638.986838521679 162.69807533068638 511.2914564841876 162.69807533068638zM898.7863235596642 218.12196567924923c0 184.53636200675552 0 368.44290654814813 0 552.5069044849777-258.2249420218469 0-515.662614477432 0-773.5726484138667 0 0-184.37890731678021 0-368.44290654814813 0-552.5069044849777C383.4386184621827 218.12196567924923 641.0337443132049 218.12196567924923 898.7863235596642 218.12196567924923zM291.4853461914864-58.0527605127902c0 17.94978287565432 0 35.58465637135802 0 54.006802022399995 36.371928526696294 0 72.74385575885432 0 109.90305514635061 0 0 37.31665278293333 0 73.53112661965432 0 110.37541792173826 73.84603599960494 0 146.58989175845926 0 220.43592646352593 0 0-36.214473836720984 0-72.586401068879 0-109.7456004563753 37.31665278293333 0 73.53112661965432 0 110.37541792173826 0 0-18.73705373645432 0-36.371928526696294 0-54.636619487762964C585.6098539646421-58.0527605127902 439.019963500721-58.0527605127902 291.4853461914864-58.0527605127902zM180.63756549436056 274.0182175086618c0 146.9047998438716 0 293.49469030779255 0 440.7143995316148 220.75083454893823 0 441.1867623070024 0 662.4099596313283 0 0-146.58989175845926 0-293.33723691235554 0-440.7143995316148C622.4541452667261 274.0182175086618 401.86076411322466 274.0182175086618 180.63756549436056 274.0182175086618z"  horiz-adv-x="1024" />

    
    <glyph glyph-name="cancel" unicode="&#58881;" d="M510.975159 832.4434749999999c-245.951645 0-447.18480899999986-201.23316399999996-447.18480899999986-447.18480899999986 0-245.95266799999996 201.23316399999996-447.18480899999986 447.18480899999986-447.18480899999986 245.95266799999996 0 447.185832 201.232141 447.185832 447.18480899999986C958.160991 631.210311 756.9268040000001 832.4434749999999 510.975159 832.4434749999999zM734.5685859999998 224.26804199999992l-62.60178-62.60178L510.975159 322.65791 349.984534 161.66626200000007 287.382754 224.26804199999992l160.990624 160.990624L287.382754 546.2503140000001l62.60178 62.60178L510.975159 447.860447l160.991648 160.991648 62.60178-62.60178L573.5769389999999 385.258667 734.5685859999998 224.26804199999992z"  horiz-adv-x="1024" />

    
    <glyph glyph-name="password3" unicode="&#59448;" d="M812.701596 434.109258l-50.125631 0L762.575965 584.475917c0 138.164756-112.420419 250.585175-250.585175 250.585175s-250.585175-112.420419-250.585175-250.585175l0-150.366659-50.108235 0c-27.680433 0-50.117444-22.437012-50.117444-50.117444l0-400.935462c0-27.680433 22.437012-50.117444 50.117444-50.117444l601.404216 0c27.680433 0 50.117444 22.437012 50.117444 50.117444L862.819041 383.992837C862.819041 411.672246 840.382029 434.109258 812.701596 434.109258zM562.116421 137.582751c0-27.677363-22.437012-50.117444-50.117444-50.117444-27.677363 0-50.117444 22.440082-50.117444 50.117444L461.881532 237.816616c0 27.680433 22.440082 50.117444 50.117444 50.117444 27.680433 0 50.117444-22.437012 50.117444-50.117444L562.116421 137.582751zM662.341077 434.109258 361.63948 434.109258 361.63948 584.475917c0 82.908268 67.443042 150.35131 150.35131 150.35131s150.35131-67.443042 150.35131-150.35131L662.3421 434.109258z"  horiz-adv-x="1024" />

    
    <glyph glyph-name="edit" unicode="&#58889;" d="M842.357029 384.599771a29.257143 29.257143 0 0 1-29.257143-29.257142v-374.842515h-716.8v716.8H474.112a29.257143 29.257143 0 0 1 0 58.514286h-394.971429c-16.149943 0-41.354971-18.592914-41.354971-34.757486v-775.314285c0-16.149943 25.1904-23.7568 41.354971-23.7568h775.314286c16.149943 0 17.173943 7.606857 17.173943 23.7568v409.6a29.257143 29.257143 0 0 1-29.271771 29.257142zM969.186743 704.131657L845.077943 828.269714a58.543543 58.543543 0 0 1-82.753829 0L258.165029 324.12525700000003a58.368 58.368 0 0 1-14.511543-24.020114l-51.829029-166.824229a58.514286 58.514286 0 0 1 69.675886-74.24l175.952457 42.686172a58.514286 58.514286 0 0 1 27.574857 15.506285l504.129829 504.144458a58.514286 58.514286 0 0 1 0.029257 82.753828z m-258.603886-10.327771l20.6848-20.699429-392.323657-392.338286-20.699429 20.699429 392.338286 392.338286z m41.3696-41.384229l41.384229-41.384228L401.013029 218.69714299999998l-41.384229 41.384228 392.323657 392.338286z m-504.246857-536.488228l16.559543 53.321142 39.672686-39.672685-56.232229-13.648457z m89.541486 21.723428l-63.166172 63.136914 24.517486 78.935772 92.0576-92.0576v-0.014629l0.014629-0.014628 29.813028-29.813029-83.236571-20.1728z m105.135543 39.672686l-20.6848 20.6848 392.338285 392.338286 20.6848-20.6848-392.338285-392.338286z m413.023085 413.023086l-124.123428 124.123428 72.411428 72.411429 124.1088-124.138057-72.3968-72.3968zM503.369143 82.90011400000003a14.628571 14.628571 0 0 1 14.628571-14.628571h204.8a14.628571 14.628571 0 1 1 0 29.257143h-204.8a14.628571 14.628571 0 0 1-14.628571-14.628572zM576.497371 170.67154300000004a14.628571 14.628571 0 0 1 14.628572-14.628572h131.657143a14.628571 14.628571 0 1 1 0 29.257143h-131.657143a14.628571 14.628571 0 0 1-14.628572-14.628571zM722.783086 229.185829a14.628571 14.628571 0 1 1 0 29.257142h-58.514286a14.628571 14.628571 0 1 1 0-29.257142h58.514286z"  horiz-adv-x="1024" />

    
    <glyph glyph-name="user2" unicode="&#58944;" d="M516.0749431466667 542.7481406577778m-293.5123296711111 0a293.5123296711111 293.5123296711111 0 1 1 587.0246593422222 0 293.5123296711111 293.5123296711111 0 1 1-587.0246593422222 0ZM961.8737174755556 10.909853013333304c0 162.0663079822222-201.41861546666667 295.14230670222224-449.7572909511111 295.14230670222224S62.24270904888891 172.2775995733333 62.24270904888891 10.211291591111149c0-26.312490097777776 5.82134784-57.16563057777777 15.834064213333333-78.47176192h867.9628799999999c10.012717511111111 21.189703679999997 15.834064213333333 52.85783324444444 15.834064213333333 79.17032334222222z"  horiz-adv-x="1024" />

    
    <glyph glyph-name="system1" unicode="&#58895;" d="M866.6786137695312-60.93449765624996c-24.9781658203125 0-51.00436669921875 11.703056835937499-71.353712109375 31.965065332031248L646.5039409179687 119.93886445312489l-22.00873359375-22.00873359375-54.67248896484375 54.67248896484375 66.02620078125 66.02620078125-77.4672486328125 77.46724951171873-109.25764189453125-109.25764189453125c8.2969435546875-28.995633105468748 9.1703056640625-56.33187802734375 3.23144033203125-91.79039355468751l-0.17467207031249998-1.22270712890625-0.34934501953125-1.1353710937500001c-9.344977734375-27.947598046874997-26.1135369140625-66.899562890625-53.27510888671875-94.0611357421875-35.371178613281245-35.371178613281245-82.88209599609375-54.0611349609375-137.46724892578126-54.0611349609375-29.1703060546875 0-53.362445800781245 5.5895194335937495-78.42794765625 18.16593837890625l-51.96506572265625 26.026200878906252L218.294333984375 76.35807832031253v22.445415527343748h-22.445414648437502L102.74848261718745 5.615720214843691l-26.200873828125 52.48908369140625-0.17467207031249998 0.52401708984375C46.9406225585937 129.37117910156257 63.70918085937495 213.47598222656256 118.20699775390625 267.97379912109375c35.371178613281245 35.371178613281245 82.88209599609375 54.0611349609375 137.46724892578126 54.0611349609375 20.34934541015625 0 36.157205566406255-4.1048033203125 50.917030664062494-8.820960644531251l109.17030585937499 109.17030585937499-154.585153125 154.585153125-22.00873359375-22.00873359375L79.77904999999998 714.1746723632812 184.0585264648438 818.3668119140625l159.21397353515624-159.21397353515624-22.00873359375-22.09606962890625 154.585153125-154.585153125 109.3449779296875 109.3449779296875c-8.2969435546875 28.995633105468748-9.1703056640625 56.33187802734375-3.2314412109374997 91.79039355468751l0.17467207031249998 1.22270712890625 0.34934501953125 1.1353710937500001c9.344977734375 27.947598046874997 26.1135369140625 66.899562890625 53.275109765625004 94.0611357421875C671.0454256835937 815.3100436523437 718.5563430664063 834 773.1414951171874 834c29.1703060546875 0 53.362445800781245-5.5895194335937495 78.42794765625-18.165939257812497L903.5345084960936 789.8951967773437 810.4340717773438 696.7947600585937v-22.445414648437502h22.445414648437502L920.4777397460937 761.9475978515625l26.4628828125-52.925763867187506c29.432314160156253-70.74235810546875 12.663755859375001-154.84716123046874-41.8340619140625-209.344978125-35.371178613281245-35.371178613281245-82.88209599609375-54.0611349609375-137.46724892578126-54.0611349609375-20.34934541015625 0-36.157205566406255 4.1048033203125-50.91702978515625 8.820960644531251l-109.17030585937499-109.17030585937499 77.4672486328125-77.4672486328125 66.02620078125 66.02620078125 54.67248896484375-54.67248896484375L783.709180859375 257.14410439453127l148.8209607421875-148.82095986328122c12.139737890625002-12.139737890625002 19.039301367187498-26.3755458984375 25.065502734375002-38.95196572265625 3.2314412109374997-6.724890527343749 6.28820947265625-13.1004369140625 9.868995703125-18.427947363281252l2.53275029296875-3.8427943359374996v-4.6288212890625c0-24.9781658203125-11.703056835937499-51.00436669921875-31.965065332031248-71.353712109375s-46.288209374999994-32.0524013671875-71.35371123046876-32.0524013671875zM646.5039409179687 163.1703055664061l170.48034931640623-170.48034931640623c14.6724890625-14.6724890625 32.75109140625-23.05676865234375 49.7816595703125-23.05676865234375s35.10917050781251 8.38427958984375 49.7816595703125 23.05676865234375c13.44978193359375 13.44978193359375 21.659388574218752 29.86899521484375 22.882095703125 45.5895193359375-3.4934501953125 5.7641923828125-6.3755455078125 11.877728906249999-9.25764169921875 17.729258203125-5.5021833984375 11.35371181640625-10.65502177734375 22.09606962890625-19.12663740234375 30.6550212890625L740.4777397460938 257.14410439453127l22.00873359375 22.00873447265625-11.4410478515625 11.4410478515625-66.02620078125-66.02620078125-120.69868974609375 120.69868974609375 144.10480341796875 144.10480341796875 8.99563271484375-2.9694322265624997c15.807860156249998-5.2401744140625 30.65502216796875-10.218340722656249 50.218340625-10.218340722656249 46.288209374999994 0 86.37554619140626 15.545851171874999 115.8078603515625 45.06550224609375 45.67685625 45.764192285156255 59.91266337890626 116.15720537109377 35.45851552734375 175.54585166015625L912.0934601562499 710.4192140625l-66.55021787109375-66.55021875h-65.67685576171876V709.545851953125l72.05240126953125 72.05240126953125-14.06113505859375 6.986899511718749c-20.611353515624998 10.305676757812499-40.61135390625 14.934498046875-64.7161576171875 14.934498046875-46.288209374999994 0-86.37554619140626-15.545851171874999-115.80785947265625-45.06550224609375-17.72925732421875-17.72925732421875-33.799126464843745-46.3755462890625-45.5021841796875-80.960698828125-4.6288212890625-28.12227099609375-5.4148473632812495-53.4497818359375 5.1528383789062495-85.0655021484375l2.96943310546875-8.99563271484375-144.10480341796875-144.10480429687502L278.0323252929687 637.0567687500001l22.00873359375 22.00873359375L184.0585264648438 775.1353708007812l-60.96069931640625-60.96069843750001 115.98253330078124-115.98253242187499 22.00873359375 22.00873359375 197.816593359375-197.81659423828125-144.10480341796875-144.10480341796875-8.99563271484375 2.9694322265624997c-15.807860156249998 5.2401744140625-30.65502216796875 10.218340722656249-50.218340625 10.218340722656249-46.288209374999994 0-86.37554619140626-15.545851171874999-115.8078603515625-45.06550224609375-45.67685625-45.67685625-59.91266337890626-116.15720537109377-35.45851552734375-175.54585166015625l6.81222744140625-13.624454003906251 72.05240126953125 72.05240214843751h65.67685576171876v-65.67685576171876l-66.55021787109375-66.55021875 14.06113505859375-7.074235546875001c20.611353515624998-10.305676757812499 40.61135390625-14.934498046875 64.7161576171875-14.934498046875 46.288209374999994 0 86.37554619140626 15.545851171874999 115.8078603515625 45.06550224609375 17.72925732421875 17.72925732421875 33.799126464843745 46.3755462890625 45.50218330078125 80.960698828125 4.6288212890625 28.12227099609375 5.4148473632812495 53.4497818359375-5.1528383789062495 85.0655021484375L414.27686708984373 195.1353708984375l144.10480341796875 144.10480341796875 120.69868974609375-120.69868974609375-66.02620078125-66.02620078125 11.4410478515625-11.4410478515625 22.00873359375 22.09606962890625z"  horiz-adv-x="1039" />

    
    <glyph glyph-name="add" unicode="&#58952;" d="M512 818.0717428710936C272.22092861328133 818.0717428710936 77.87480732421875 623.7256207031251 77.87480732421875 383.9465493164063S272.22092861328133-50.1786433593752 512-50.1786433593752 946.1251926757811 144.1674779296875 946.1251926757811 383.9465493164063 751.7790713867187 818.0717428710936 512 818.0717428710936m53.87813261718749-702.9813524414062l-99.63178505859375-0.32070322265625-0.6414064453125 219.14716728515626-219.14716728515626-0.6414064453125-0.32070322265625 99.63178593750001 219.14716728515626 0.64140556640625-0.6414064453125 219.14716728515626 99.63178505859375 0.32070322265625 0.6414064453125-219.14716728515626 219.14716728515626 0.6414064453125 0.32070322265625-99.63178505859375-219.14716728515626-0.6414064453125 0.6414064453125-219.14716728515626m0 0"  horiz-adv-x="1024" />

    
    <glyph glyph-name="resource" unicode="&#58893;" d="M511.9 734.9l370-162.2-370-162.2-369.9 162.2 369.9 162.2zM80 553.4l423-185.4c5.7-2.5 12.2-2.5 17.9 0l423 185.4c7.9 3.4 13 10.9 13 19.3s-5.1 15.9-13 19.3l-423 185.4c-5.7 2.5-12.3 2.5-18 0l-422.9-185.4c-7.8-3.5-12.8-11-12.8-19.3s5-15.8 12.8-19.3zM925.9 404.4l-414-181.5-413.9 181.5c-11 4.8-23.9 0-28.9-10.6-2.4-5.1-2.6-10.9-0.6-16.2s6.2-9.5 11.4-11.8l423.1-185.5c5.7-2.5 12.2-2.5 17.9 0l423 185.4c10.9 4.8 15.8 17.4 10.9 28-5 10.7-17.9 15.4-28.9 10.7zM925.9 214.3l-414-181.5-413.9 181.5c-10.8 3.9-22.8-1-27.5-11.2s-0.5-22.1 9.6-27.4l422.9-185.4c5.7-2.5 12.2-2.5 17.9 0l423 185.4c10.9 4.8 15.8 17.4 10.9 28s-17.9 15.4-28.9 10.6z"  horiz-adv-x="1024" />

    
    <glyph glyph-name="cross" unicode="&#58958;" d="M917 332.07861328125h45v90H62v-90h45zM467-21v-45h90V834H467v-45z"  horiz-adv-x="1024" />

    
    <glyph glyph-name="collapse" unicode="&#58882;" d="M909.733537-57.17390799999998L113.8817-57.17390799999998c-24.453948 0-44.349067 19.894096-44.349067 44.349067L69.532633 783.026996c0 24.453948 19.895119 44.348044 44.349067 44.348044L909.733537 827.37504c24.453948 0 44.349067-19.894096 44.349067-44.348044l0-795.851836C954.081581-37.27981199999999 934.187485-57.17390799999998 909.733537-57.17390799999998zM113.8817 786.442792c-1.820462 0-3.416819-1.596358-3.416819-3.415796l0-795.851836c0-1.819438 1.596358-3.416819 3.416819-3.416819L909.733537-16.241660000000024c1.819438 0 3.416819 1.597381 3.416819 3.416819L913.150356 783.026996c0 1.819438-1.597381 3.415796-3.416819 3.415796L113.8817 786.442792zM258.552637 405.567201l506.510986 0 0-40.932248-506.510986 0 0 40.932248ZM482.131739 658.822183l40.932248 0 0-506.510986-40.932248 0 0 506.510986Z"  horiz-adv-x="1024" />

    
    <glyph glyph-name="user3" unicode="&#58887;" d="M720.0768 198.31466666666665c-56.79786666666666-30.583466666666663-121.78773333333334-48.05973333333333-190.60053333333332-48.05973333333333-68.8128 0-133.80266666666665 17.476266666666668-190.60053333333332 48.05973333333333-122.88-32.22186666666666-218.99946666666668-108.68053333333334-263.23626666666667-273.06666666666666h907.6736c-44.2368 164.38613333333333-140.35626666666667 240.8448-263.23626666666667 273.06666666666666zM529.4762666666667 245.82826666666676c162.20159999999998 0 293.8197333333334 131.61813333333333 293.8197333333334 293.8197333333334s-131.61813333333333 293.8197333333334-293.8197333333334 293.8197333333334-294.3658666666667-131.61813333333333-294.3658666666667-293.8197333333334 131.61813333333333-293.8197333333334 294.3658666666667-293.8197333333334z m196.608 196.06186666666665c-36.0448-72.0896-110.31893333333333-122.33386666666665-196.608-122.33386666666665s-160.5632 50.24426666666667-196.608 122.33386666666665h393.216z"  horiz-adv-x="1024" />

    
    <glyph glyph-name="delete" unicode="&#59122;" d="M512 19.911111111111268c-200.75861333333336 0-364.08888888888885 163.33027555555554-364.08888888888885 364.08888888888885S311.2413866666667 748.0888888888888 512 748.0888888888888s364.08888888888885-163.33027555555554 364.08888888888885-364.08888888888885-163.33027555555554-364.08888888888885-364.08888888888885-364.08888888888885m0 800.9955555555555C271.08238222222224 820.9066666666668 75.0933333333333 624.9176177777778 75.0933333333333 384s195.98904888888887-436.9066666666667 436.9066666666667-436.9066666666667 436.9066666666667 195.98904888888887 436.9066666666667 436.9066666666667S752.9176177777777 820.9066666666668 512 820.9066666666668M668.8130844444444 555.3766400000001a36.372479999999996 36.372479999999996 0 0 1-51.482168888888886 0L504.7182222222222 442.7639466666667l-112.61269333333333 112.61269333333333a36.372479999999996 36.372479999999996 0 1 1-51.482168888888886-51.482168888888886l112.61269333333333-112.61269333333333-112.61269333333333-112.61269333333333a36.40888888888889 36.40888888888889 0 0 1 51.482168888888886-51.482168888888886l112.61269333333333 112.61269333333333 112.61269333333333-112.61269333333333a36.29966222222222 36.29966222222222 0 0 1 51.482168888888886 0 36.372479999999996 36.372479999999996 0 0 1 0 51.482168888888886L556.2003911111111 391.2817777777778l112.61269333333333 112.61269333333333a36.372479999999996 36.372479999999996 0 0 1 0 51.482168888888886"  horiz-adv-x="1024" />

    
    <glyph glyph-name="collapse1" unicode="&#58949;" d="M79.08010666666672 629.7645511111111L512 138.23658666666654l432.91875555555555 491.5279644444444z"  horiz-adv-x="1024" />

    
    <glyph glyph-name="ok" unicode="&#58991;" d="M512-48.8288711111112c-240.58993777777775 0-432.8288711111111 192.23893333333336-432.8288711111111 432.8288711111111s192.23893333333336 432.8288711111111 432.8288711111111 432.8288711111111c76.89557333333333 0 148.54826666666668-19.223893333333333 211.46282666666664-57.67168l-28.54456888888889-47.76846222222222c-53.01134222222222 29.127111111111113-115.34336 47.76846222222222-182.91825777777777 47.76846222222222-211.46282666666664 0-374.5746488888889-158.45148444444445-374.5746488888889-374.5746488888889 0-211.46282666666664 163.11182222222223-375.15719111111116 374.5746488888889-375.15719111111116s375.15719111111116 168.35470222222222 375.15719111111116 375.15719111111116h57.67168c0-241.17247999999998-192.23893333333336-433.4114133333333-432.8288711111111-433.4114133333333zM905.7985422222223 662.4551822222222c-9.903217777777778 9.903217777777778-28.54456888888889 9.903217777777778-33.20490666666666 0l-350.6904177777778-384.4778666666667-197.48181333333332 192.23893333333336c-9.903217777777778 9.903217777777778-28.54456888888889 9.903217777777778-28.54456888888889 0-9.903217777777778-4.660337777777778-9.903217777777778-24.466773333333332-4.660337777777778-33.20490666666666L507.3396622222221 220.88817777777786s4.660337777777778 0 4.660337777777778-4.660337777777778 0-4.660337777777778 4.660337777777778-4.660337777777778h14.563555555555556s4.660337777777778 0 4.660337777777778 4.660337777777778l365.2539733333333 408.3620977777777c14.563555555555556 9.320675555555557 14.563555555555556 28.54456888888889 4.660337777777778 37.86524444444444z"  horiz-adv-x="1024" />

    
    <glyph glyph-name="edit1" unicode="&#58914;" d="M416.1991111111111 525.8808888888889H230.51377777777782c-10.012444444444444 0-18.204444444444444 8.192-18.204444444444444 18.204444444444444s8.192 18.204444444444444 18.204444444444444 18.204444444444444h185.68533333333332c10.012444444444444 0 18.204444444444444-8.192 18.204444444444444-18.204444444444444s-8.192-18.204444444444444-18.204444444444444-18.204444444444444zM500.3946666666667 302.53511111111106H230.51377777777782c-10.012444444444444 0-18.204444444444444 8.192-18.204444444444444 18.204444444444444s8.192 18.204444444444444 18.204444444444444 18.204444444444444h269.8808888888889c10.012444444444444 0 18.204444444444444-8.192 18.204444444444444-18.204444444444444s-8.192-18.204444444444444-18.204444444444444-18.204444444444444zM628.9635555555556 79.18933333333337H230.51377777777782c-10.012444444444444 0-18.204444444444444 8.192-18.204444444444444 18.204444444444444s8.192 18.204444444444444 18.204444444444444 18.204444444444444h398.44977777777774c10.012444444444444 0 18.204444444444444-8.192 18.204444444444444-18.204444444444444s-8.192-18.204444444444444-18.204444444444444-18.204444444444444zM712.4764444444445 413.3546666666666c-10.012444444444444 0-19.683555555555554 3.0720000000000005-27.875555555555554 8.988444444444445l-91.70488888888889 65.99111111111111c-21.390222222222224 15.36-26.282666666666668 45.28355555555555-10.808888888888887 66.56l186.59555555555556 259.29955555555557c8.988444444444445 12.401777777777777 23.438222222222226 19.79733333333333 38.79822222222222 19.79733333333333 10.012444444444444 0 19.683555555555554-3.0720000000000005 27.875555555555554-8.988444444444445l91.70488888888889-65.99111111111111c21.390222222222224-15.36 26.282666666666668-45.28355555555555 10.808888888888887-66.56l-186.59555555555556-259.29955555555557c-8.988444444444445-12.401777777777777-23.438222222222226-19.79733333333333-38.79822222222222-19.79733333333333z m95.00444444444445 384.2275555555555c-3.640888888888889 0-7.054222222222222-1.7066666666666668-9.216-4.664888888888888l-186.59555555555556-259.29955555555557c-3.640888888888889-5.006222222222222-2.503111111111111-12.174222222222221 2.6168888888888886-15.81511111111111l91.70488888888889-65.99111111111111c2.503111111111111-1.7066666666666668 4.892444444444443-2.1617777777777776 6.599111111111111-2.1617777777777776 3.640888888888889 0 7.054222222222222 1.7066666666666668 9.216 4.664888888888888l186.59555555555556 259.29955555555557c3.640888888888889 5.006222222222222 2.503111111111111 12.174222222222221-2.6168888888888886 15.81511111111111l-91.70488888888889 65.99111111111111c-2.503111111111111 1.8204444444444445-5.006222222222222 2.1617777777777776-6.599111111111111 2.1617777777777776zM572.3022222222222 342.8124444444444c-3.754666666666666 0-7.509333333333332 1.1377777777777778-10.581333333333333 3.4133333333333336-5.233777777777777 3.754666666666666-8.192 10.126222222222223-7.509333333333332 16.611555555555555L569.9128888888888 522.8088888888889c0.6826666666666666 6.485333333333333 4.664888888888888 12.060444444444444 10.581333333333333 14.791111111111112 5.916444444444444 2.7306666666666666 12.85688888888889 2.048 18.090666666666667-1.8204444444444445L729.3155555555555 442.1404444444444c5.233777777777777-3.754666666666666 8.192-10.126222222222223 7.509333333333332-16.611555555555555-0.6826666666666666-6.485333333333333-4.664888888888888-12.060444444444444-10.581333333333333-14.791111111111112l-146.43199999999996-66.44622222222222c-2.3893333333333335-1.024-5.006222222222222-1.479111111111111-7.509333333333332-1.479111111111111z m30.72 145.06666666666666l-9.557333333333334-97.28 88.97422222222222 40.39111111111111-79.41688888888889 56.88888888888889zM873.9271111111111 631.4666666666667c-3.640888888888889 0-7.395555555555556 1.1377777777777778-10.581333333333333 3.4133333333333336l-122.31111111111112 87.95022222222222c-8.192 5.916444444444444-10.012444444444444 17.29422222222222-4.096 25.372444444444447 5.916444444444444 8.192 17.29422222222222 10.012444444444444 25.372444444444447 4.096l122.31111111111112-87.95022222222222c8.192-5.916444444444444 10.012444444444444-17.29422222222222 4.096-25.372444444444447-3.640888888888889-4.892444444444443-9.216-7.509333333333332-14.791111111111112-7.509333333333332zM789.7315555555556 340.4231111111112V-16.497777777777856c0-7.395555555555556-6.030222222222222-13.311999999999998-13.311999999999998-13.311999999999998h-618.9511111111111c-7.395555555555556 0-13.311999999999998 6.030222222222222-13.311999999999998 13.311999999999998V748.0888888888888c0 7.395555555555556 6.030222222222222 13.311999999999998 13.311999999999998 13.311999999999998h484.6933333333333c10.012444444444444 0 18.204444444444444 8.192 18.204444444444444 18.204444444444444s-8.192 18.204444444444444-18.204444444444444 18.204444444444444h-484.6933333333333c-27.534222222222223 0-49.720888888888894-22.300444444444445-49.720888888888894-49.720888888888894v-764.5866666666666c0-27.534222222222223 22.300444444444445-49.720888888888894 49.720888888888894-49.720888888888894h618.9511111111111c27.534222222222223 0 49.720888888888894 22.300444444444445 49.720888888888894 49.720888888888894V340.4231111111112c0 10.012444444444444-8.192 18.204444444444444-18.204444444444444 18.204444444444444s-18.204444444444444-8.078222222222221-18.204444444444444-18.204444444444444z"  horiz-adv-x="1024" />

    
    <glyph glyph-name="role" unicode="&#59015;" d="M630.485333 335.658667a21.077333 21.077333 0 0 1-13.397333 27.690666 60.245333 60.245333 0 0 1-5.632 1.365334 238.933333 238.933333 0 0 1 145.322667 220.330666c0 132.352-107.690667 240.042667-240.042667 240.042667S276.736 717.397333 276.736 585.045333a238.762667 238.762667 0 0 1 146.218667-220.714666c-152.746667-44.714667-258.858667-189.824-258.858667-355.114667 0-6.229333 0.128-12.330667 0.469333-18.176a20.821333 20.821333 0 1 1 41.557334 2.176 341.290667 341.290667 0 0 0-0.426667 16c0 180.650667 140.458667 327.68 313.088 327.68 28.714667 0 57.856-4.522667 86.528-13.44a20.565333 20.565333 0 0 1 25.173333 12.202667z m85.845334 249.386666c0-110.037333-89.557333-199.552-199.594667-199.552S317.184 475.008 317.184 585.045333 406.698667 784.64 516.736 784.64s199.594667-89.557333 199.594667-199.594667zM1009.109333 191.445333a43.733333 43.733333 0 0 1-31.786666 33.28l-5.333334 1.194667a47.786667 47.786667 0 0 0-27.605333 21.845333 46.592 46.592 0 0 0-5.418667 33.749334l2.133334 6.485333a44.330667 44.330667 0 0 1-12.928 44.202667 195.541333 195.541333 0 0 1-25.984 16.938666 203.306667 203.306667 0 0 1-27.392 13.952 44.16 44.16 0 0 1-44.8-10.837333l-3.797334-4.138667a47.018667 47.018667 0 0 0-32.384-12.928l-0.469333 0.085334-0.213333-0.085334a46.634667 46.634667 0 0 0-31.658667 12.416l-4.352 4.608a43.861333 43.861333 0 0 1-44.842667 10.88c-0.085333-0.042667-8.448-2.986667-27.605333-13.994666a205.824 205.824 0 0 1-25.770667-16.938667c-11.946667-10.069333-17.493333-29.056-12.970666-44.16l1.621333-5.12a48.085333 48.085333 0 0 0-31.701333-56.746667l-6.314667-1.408a43.946667 43.946667 0 0 1-31.829333-33.365333c-0.170667-0.938667-1.664-9.813333-1.664-30.890667 0-20.821333 1.493333-29.909333 1.664-30.890666 2.816-15.530667 16.469333-29.866667 31.829333-33.365334l5.077333-1.109333c11.818667-3.498667 21.674667-11.264 27.776-21.930667 6.058667-10.496 8.021333-23.04 5.333334-34.304l-1.792-5.930666c-4.522667-14.976 1.024-33.962667 13.098666-44.330667 2.517333-2.005333 9.984-7.68 25.770667-16.853333 15.957333-9.173333 24.448-12.757333 27.477333-13.909334 14.762667-5.333333 34.048-0.64 44.757334 10.837334l3.584 3.882666c17.152 16.298667 48.170667 16.597333 64.981333 0.725334l4.309333-4.693334c7.466667-8.064 19.541333-13.098667 31.488-13.098666a38.826667 38.826667 0 0 1 13.354667 2.261333c1.536 0.554667 9.984 3.882667 27.477333 13.909333 16.512 9.557333 23.893333 15.317333 25.813334 16.938667 11.989333 10.069333 17.578667 29.056 13.013333 44.16l-1.621333 5.333333a47.616 47.616 0 0 0 5.077333 34.944c6.058667 10.496 15.872 18.432 26.752 21.674667l6.101333 1.408c15.36 3.541333 29.013333 17.877333 31.829334 33.365333 0.256 1.621333 1.664 10.581333 1.664 30.933334-0.085333 21.12-1.621333 30.08-1.749334 31.018666z m-32.725333-30.976c0-17.877333-1.152-24.746667-1.152-24.832-0.341333-1.962667-3.584-5.376-5.589333-5.845333l-7.125334-1.706667c-20.309333-5.973333-37.290667-19.413333-47.914666-37.802666a81.92 81.92 0 0 1-8.490667-61.056l1.877333-6.314667c0.597333-2.048-0.682667-6.656-2.218666-7.936-0.213333-0.170667-5.632-4.693333-20.778667-13.397333-15.616-8.96-22.144-11.434667-22.229333-11.477334-1.749333-0.64-6.272 0.426667-7.68 1.877334l-5.034667 5.376a81.92 81.92 0 0 1-113.962667-0.597334l-4.352-4.650666c-1.450667-1.578667-5.802667-2.645333-7.765333-1.962667-0.042667 0-6.613333 2.474667-22.016 11.392a188.373333 188.373333 0 0 0-20.821333 13.354667c-1.578667 1.365333-2.901333 6.016-2.304 8.064l2.048 6.912a82.133333 82.133333 0 0 1-57.6 98.474666l-6.186667 1.408c-1.92 0.426667-5.205333 3.797333-5.546667 5.674667 0 0.085333-1.152 7.210667-1.152 24.96 0 17.834667 1.109333 24.746667 1.152 24.789333 0.341333 1.962667 3.584 5.376 5.504 5.845334l7.338667 1.706666c20.309333 5.973333 37.333333 19.413333 47.829333 37.76 10.666667 18.517333 13.568 39.637333 8.490667 61.312l-1.877333 6.186667c-0.597333 1.962667 0.682667 6.485333 2.176 7.765333 0.213333 0.170667 5.674667 4.650667 20.864 13.482667 15.36 8.832 22.058667 11.434667 22.186666 11.477333 1.792 0.682667 6.357333-0.426667 7.765334-1.962666l5.077333-5.418667c15.317333-14.592 35.328-22.613333 56.832-22.613333 21.333333 0 40.96 7.978667 56.874667 23.168l4.522666 4.821333c1.450667 1.664 5.973333 2.688 7.637334 2.048 0.042667 0 6.570667-2.517333 22.186666-11.477333 15.274667-8.832 20.778667-13.354667 20.821334-13.354667 1.578667-1.322667 2.901333-5.973333 2.432-7.509333l-2.432-7.466667a82.048 82.048 0 0 1 57.344-98.304l6.570666-1.536c1.962667-0.426667 5.162667-3.797333 5.504-5.717333 0-0.256 1.152-7.509333 1.194667-24.917334zM793.386667 253.994667a87.338667 87.338667 0 0 1-87.253334-87.296c0-48.128 39.125333-87.253333 87.253334-87.253334a87.381333 87.381333 0 0 1 87.296 87.253334 87.338667 87.338667 0 0 1-87.296 87.296z m54.016-87.296c0-29.738667-24.234667-53.973333-54.016-53.973334a54.058667 54.058667 0 0 0-53.973334 53.973334c0 29.781333 24.234667 54.016 53.973334 54.016 29.824 0 54.016-24.234667 54.016-54.016z"  horiz-adv-x="1024" />

    
    <glyph glyph-name="expand1" unicode="&#59449;" d="M266.23544888888875-48.91989333333322L757.7634133333333 384.0000000000002l-491.52796444444425 432.9187555555556z"  horiz-adv-x="1024" />

    
    <glyph glyph-name="expand" unicode="&#59450;" d="M884.8751909375-29.60053874999994L138.76409375000003-29.60053874999994c-22.92557625 0-41.5772503125 18.650715-41.5772503125 41.5772503125L97.18684343750004 758.08780875c0 22.92557625 18.6516740625 41.576291250000004 41.5772503125 41.576291250000004L884.8751909375 799.6641c22.92557625 0 41.5772503125-18.650715 41.5772503125-41.576291250000004l0-746.1110962500001C926.4514821875-10.94982374999995 907.8007671875-29.60053874999994 884.8751909375-29.60053874999994zM138.76409375000003 761.2901175c-1.706683125 0-3.2032678125-1.496585625-3.2032678125-3.20230875l0-746.1110962500001c0-1.705723125 1.496585625-3.2032678125 3.2032678125-3.2032678125L884.8751909375 8.773443749999956c1.705723125 0 3.2032678125 1.4975446875 3.2032678125 3.2032678125L888.07845875 758.08780875c0 1.705723125-1.4975446875 3.20230875-3.2032678125 3.20230875L138.76409375000003 761.2901175zM274.3930971875 404.2192509375l474.854049375 0 0-38.373982500000004-474.854049375 0 0 38.373982500000004ZM510.138020809942 401.13233943256046l2.551705101890352 0 0-31.575755798697195-2.551705101890352 0 0 31.575755798697195Z"  horiz-adv-x="1024" />

    


  </font>
</defs>
</svg>
